Motion_sv02_j
version=1
nRows=12
nColumns=43
inDegrees=yes
endheader
time	pelvis_tilt	pelvis_list	pelvis_rotation	pelvis_tx	pelvis_ty	pelvis_tz	hip_flexion_r	hip_adduction_r	hip_rotation_r	knee_angle_r	ankle_angle_r	subtalar_angle_r	mtp_angle_r	hip_flexion_l	hip_adduction_l	hip_rotation_l	knee_angle_l	ankle_angle_l	subtalar_angle_l	mtp_angle_l	lumbar_extension	lumbar_bending	lumbar_rotation	neck_flexion	neck_lateral_bending	neck_rotation	arm_flex_r	arm_add_r	arm_rot_r	elbow_flex_r	pro_sup_r	wrist_flex_r	wrist_dev_r	hand_finger_flex_r	arm_flex_l	arm_add_l	arm_rot_l	elbow_flex_l	pro_sup_l	wrist_flex_l	wrist_dev_l	hand_finger_flex_l
      0.97000000	     22.23165530	    -18.97821761	    -91.24896453	     -0.07983489	      1.35106022	      1.01245474	     85.62390004	    -10.00357705	     -6.58491033	    -94.29420729	      3.93268573	     -4.15752581	      7.45723367	     81.89127352	    -13.63537926	      2.30274210	   -143.64114098	     15.92239292	      1.32058141	    -24.26956654	    -65.97366023	      4.97906866	     -7.23298621	     14.10892066	     -9.97865441	     -1.43640260	     12.60909565	    -26.65773237	      5.36156993	     56.88821905	    175.85578311	    -47.28440027	    -21.83986525	     77.55935272	    119.10233140	    -19.77731909	     69.52655020	     63.25662961	    132.90376415	    -32.06237787	    -14.55389800	     -2.36854440
      0.97250000	     22.31295358	    -19.21435130	    -91.22211654	     -0.07961208	      1.35029414	      1.01590280	     84.88756564	    -10.22933467	     -6.52326322	    -93.20682533	      3.14036348	     -4.11933188	      7.38672438	     81.41932341	    -13.61514492	      2.27543099	   -143.95556201	     15.93626830	      1.26942236	    -24.17829042	    -65.82013041	      4.96292076	     -7.23659718	     13.73364827	    -10.08714839	     -1.57642567	     12.07571816	    -26.57536733	      5.04876933	     56.73888789	    175.97867508	    -47.24315504	    -21.90185721	     77.39357724	    118.84982366	    -19.86090041	     69.22014593	     63.46153857	    132.69525787	    -31.92414206	    -14.50093742	     -2.39984931
      0.97500000	     22.39363488	    -19.53878502	    -91.19793681	     -0.07958026	      1.34982721	      1.01926916	     83.99375472	    -10.42096378	     -6.49799150	    -92.07393475	      2.40113443	     -4.49289542	      7.44613404	     80.80315116	    -13.60368408	      2.23668157	   -144.22826286	     15.91024328	      1.15626154	    -23.78537523	    -65.80279819	      4.94740346	     -7.08431759	     13.51255399	    -10.38016521	     -1.95845850	     11.33397453	    -26.46647119	      4.24122591	     56.77482297	    176.53027266	    -47.08804702	    -22.29505013	     76.87248827	    118.53519099	    -19.78119070	     68.63139022	     63.62654291	    132.31692999	    -31.26091254	    -14.59306539	     -2.49929561
      0.97750000	     22.45700987	    -19.69526068	    -91.16127536	     -0.07931484	      1.34869705	      1.02288688	     83.36306336	    -10.66532760	     -6.43416488	    -91.04018223	      1.55438622	     -4.24052468	      7.35547318	     80.46735214	    -13.60882157	      2.28818751	   -144.57899386	     15.86232837	      1.15405515	    -23.68211354	    -65.53533151	      4.92898968	     -7.12527015	     13.10611285	    -10.29693096	     -1.97988782	     10.79324403	    -26.35265365	      4.01288006	     56.61100389	    176.55655412	    -47.03866448	    -22.28290227	     76.78170588	    118.30063664	    -19.95937514	     68.45648554	     63.90771632	    132.20329664	    -31.30615207	    -14.61319066	     -2.59220287
      0.98000000	     22.52862320	    -19.93217111	    -91.11743319	     -0.07914317	      1.34787362	      1.02642884	     82.60058987	    -10.90906707	     -6.38932457	    -89.97285419	      0.69224871	     -4.14491940	      7.25449280	     79.98312717	    -13.59017400	      2.30312781	   -144.89026949	     15.84129829	      1.14530146	    -23.53518569	    -65.35436176	      4.92742297	     -7.12298860	     12.69321710	    -10.43181207	     -2.06807465	     10.26111319	    -26.26898481	      3.76223534	     56.42641684	    176.64167080	    -47.00756950	    -22.29357463	     76.65325489	    118.00837175	    -20.05647552	     68.18510439	     64.11370539	    132.00357402	    -31.28685046	    -14.55602300	     -2.67510741
      0.98250000	     22.59648007	    -20.18626758	    -91.07223207	     -0.07900691	      1.34705968	      1.02998867	     81.80255108	    -11.15718410	     -6.36643773	    -88.91267792	     -0.13461190	     -4.12109918	      7.14616891	     79.46775519	    -13.57288621	      2.32697475	   -145.20614398	     15.83099353	      1.12316430	    -23.36250060	    -65.19222464	      4.92873321	     -7.11076225	     12.30791224	    -10.55189994	     -2.20193855	      9.70044705	    -26.19193549	      3.50091245	     56.28509321	    176.74810825	    -47.01609034	    -22.30343611	     76.51472762	    117.71625461	    -20.17207466	     67.90646500	     64.34792245	    131.79834978	    -31.24367163	    -14.52417534	     -2.75011580
      0.98500000	     22.62694888	    -20.54087516	    -91.03893271	     -0.07904416	      1.34664978	      1.03340295	     80.80563204	    -11.38922618	     -6.44380813	    -87.77969164	     -0.88968680	     -4.48240921	      7.05143603	     78.78231688	    -13.53445560	      2.38203964	   -145.46928709	     15.80512403	      1.05767057	    -22.76083825	    -65.19540821	      4.95866134	     -6.92579562	     12.10045860	    -10.85766172	     -2.54572199	      8.98355171	    -26.11998733	      2.88187007	     56.29216651	    177.20158046	    -47.04490384	    -22.45490059	     76.12478418	    117.40002237	    -20.12742164	     67.41157546	     64.51696137	    131.46111030	    -30.83612697	    -14.61647561	     -2.92457117
      0.98750000	     22.69395338	    -20.70748823	    -91.00129764	     -0.07881749	      1.34548078	      1.03714007	     80.12672650	    -11.63372217	     -6.39308785	    -86.77527824	     -1.72580889	     -4.25970232	      6.91737216	     78.37630556	    -13.51330416	      2.43126193	   -145.82027806	     15.79922689	      1.03160828	    -22.59828379	    -64.90985491	      4.93404897	     -6.95469473	     11.66367892	    -10.77856352	     -2.56735644	      8.40574597	    -26.02763915	      2.66678316	     56.15136650	    177.21196781	    -47.04675395	    -22.40677359	     76.05376238	    117.13004305	    -20.32882901	     67.25356722	     64.82579714	    131.34693704	    -30.89602451	    -14.64480901	     -3.02024495
      0.99000000	     22.77415829	    -20.94575024	    -90.95146000	     -0.07864317	      1.34462826	      1.04077030	     79.32932454	    -11.90471720	     -6.38033821	    -85.72418041	     -2.58725383	     -4.17516851	      6.75446095	     77.81748675	    -13.46503742	      2.42248765	   -146.12887327	     15.85631823	      0.96388931	    -22.39979737	    -64.70588123	      4.93277239	     -6.95587287	     11.23326981	    -10.89777753	     -2.65214099	      7.84285426	    -25.95613476	      2.43596134	     56.01245013	    177.23543454	    -47.08389171	    -22.36637706	     75.96045726	    116.81049855	    -20.46634910	     67.00844314	     65.06814833	    131.16281149	    -30.92647854	    -14.60590947	     -3.11120345
      0.99250000	     22.86103004	    -21.17496501	    -90.89380557	     -0.07848861	      1.34376532	      1.04442662	     78.51890165	    -12.17565646	     -6.37629375	    -84.66859559	     -3.37453553	     -4.15939219	      6.58303130	     77.25608378	    -13.40385145	      2.39293468	   -146.42113704	     15.92757772	      0.85643186	    -22.19987104	    -64.50086485	      4.93037511	     -6.95252602	     10.84284908	    -10.99239097	     -2.77673485	      7.25076075	    -25.90310144	      2.21382225	     55.90474622	    177.24435653	    -47.15516001	    -22.33499516	     75.87555431	    116.51617557	    -20.61903696	     66.78043218	     65.33358634	    130.98703061	    -30.94198652	    -14.59444981	     -3.18735181
      0.99500000	     22.95556842	    -21.52735626	    -90.79232827	     -0.07842698	      1.34337482	      1.04790346	     77.52997113	    -12.48422500	     -6.41411638	    -83.56078390	     -4.16208400	     -4.46853667	      6.28049240	     76.47533922	    -13.29301553	      2.30193689	   -146.64078091	     15.95542711	      0.55368375	    -21.63738147	    -64.47381933	      4.96888198	     -6.83955903	     10.60883225	    -11.28819158	     -3.10528198	      6.55471812	    -25.86323743	      1.75634360	     55.88053335	    177.34512668	    -47.33124703	    -22.40665184	     75.68591367	    116.19644030	    -20.60694973	     66.38109950	     65.53187152	    130.68215786	    -30.72398277	    -14.64598587	     -3.32276696
      0.99750000	     23.03851194	    -21.68138040	    -90.73797912	     -0.07818015	      1.34216923	      1.05174869	     76.84521603	    -12.75364006	     -6.38694753	    -82.56180273	     -4.97498090	     -4.30120178	      6.08859569	     75.99790091	    -13.25602729	      2.29673466	   -146.95125247	     16.01759214	      0.44557082	    -21.45472019	    -64.15650764	      4.94280662	     -6.88040003	     10.12659959	    -11.18713730	     -3.16232142	      5.94212232	    -25.77949647	      1.54953118	     55.78608989	    177.28482349	    -47.40332543	    -22.37275216	     75.65178087	    115.91466097	    -20.84320826	     66.25768074	     65.89457995	    130.56432371	    -30.78731220	    -14.69575632	     -3.39544629
